<svg width="24" height="24" viewBox="0 0 24 24" fill="none" xmlns="http://www.w3.org/2000/svg">
<g clip-path="url(#clip0_18_466)">
<g filter="url(#filter0_d_18_466)">
<mask id="path-1-inside-1_18_466" fill="white">
<path d="M7.05305 3.4998C5.68305 4.8798 5.68305 7.0998 7.05305 8.4698L15.543 16.9498C16.123 17.5398 16.123 18.4998 15.543 19.0698C14.953 19.6598 14.003 19.6598 13.413 19.0698L9.17305 14.8298L10.233 13.7698L6.70305 10.2298L6.34305 10.5898L4.93305 9.1698C4.54305 8.7798 3.91305 8.7798 3.50305 9.1698L2.10305 10.5898C1.71305 10.9998 1.71305 11.6098 2.10305 11.9998L3.50305 13.4098L3.16305 13.7698L6.70305 17.2998L7.76305 16.2398L12.003 20.4998C13.373 21.8498 15.583 21.8498 16.953 20.4998C18.323 19.1198 18.323 16.8998 16.953 15.5398L8.46305 7.0498C7.88305 6.4598 7.88305 5.4998 8.46305 4.9298C9.05305 4.3398 10.003 4.3398 10.593 4.9298L14.833 9.1698L13.773 10.2298L17.303 13.7698L17.663 13.4098L19.073 14.8298C19.463 15.2198 20.103 15.2198 20.503 14.8298L21.903 13.4098C22.293 12.9998 22.293 12.3898 21.903 11.9998L20.503 10.5898L20.843 10.2298L17.303 6.6998L16.243 7.7598L12.003 3.4998C10.633 2.1498 8.42305 2.1498 7.05305 3.4998ZM2.81305 11.2898L4.22305 9.8798L5.64305 11.2898L4.22305 12.7098M18.363 12.7098L19.783 11.2898L21.193 12.7098L19.783 14.1198L18.363 12.7098Z"/>
</mask>
<path d="M7.05305 3.4998C5.68305 4.8798 5.68305 7.0998 7.05305 8.4698L15.543 16.9498C16.123 17.5398 16.123 18.4998 15.543 19.0698C14.953 19.6598 14.003 19.6598 13.413 19.0698L9.17305 14.8298L10.233 13.7698L6.70305 10.2298L6.34305 10.5898L4.93305 9.1698C4.54305 8.7798 3.91305 8.7798 3.50305 9.1698L2.10305 10.5898C1.71305 10.9998 1.71305 11.6098 2.10305 11.9998L3.50305 13.4098L3.16305 13.7698L6.70305 17.2998L7.76305 16.2398L12.003 20.4998C13.373 21.8498 15.583 21.8498 16.953 20.4998C18.323 19.1198 18.323 16.8998 16.953 15.5398L8.46305 7.0498C7.88305 6.4598 7.88305 5.4998 8.46305 4.9298C9.05305 4.3398 10.003 4.3398 10.593 4.9298L14.833 9.1698L13.773 10.2298L17.303 13.7698L17.663 13.4098L19.073 14.8298C19.463 15.2198 20.103 15.2198 20.503 14.8298L21.903 13.4098C22.293 12.9998 22.293 12.3898 21.903 11.9998L20.503 10.5898L20.843 10.2298L17.303 6.6998L16.243 7.7598L12.003 3.4998C10.633 2.1498 8.42305 2.1498 7.05305 3.4998ZM2.81305 11.2898L4.22305 9.8798L5.64305 11.2898L4.22305 12.7098M18.363 12.7098L19.783 11.2898L21.193 12.7098L19.783 14.1198L18.363 12.7098Z" fill="black"/>
<path d="M7.05305 3.4998L6.35112 2.78747L6.34337 2.79527L7.05305 3.4998ZM7.05305 8.4698L6.34594 9.17691L6.34636 9.17733L7.05305 8.4698ZM15.543 16.9498L16.2562 16.2487L16.2497 16.2423L15.543 16.9498ZM15.543 19.0698L14.8421 18.3565L14.8359 18.3627L15.543 19.0698ZM13.413 19.0698L12.7059 19.7769L12.7059 19.7769L13.413 19.0698ZM9.17305 14.8298L8.46594 14.1227L7.75883 14.8298L8.46594 15.5369L9.17305 14.8298ZM10.233 13.7698L10.9402 14.4769L11.6463 13.7708L10.9412 13.0637L10.233 13.7698ZM6.70305 10.2298L7.41115 9.5237L6.70405 8.81459L5.99594 9.5227L6.70305 10.2298ZM6.34305 10.5898L5.63345 11.2944L6.34055 12.0065L7.05015 11.2969L6.34305 10.5898ZM4.93305 9.1698L5.64265 8.4652L5.64015 8.4627L4.93305 9.1698ZM3.50305 9.1698L2.81383 8.44525L2.80221 8.4563L2.79094 8.46773L3.50305 9.1698ZM2.10305 10.5898L1.39094 9.88773L1.38466 9.8941L1.37849 9.90059L2.10305 10.5898ZM2.10305 11.9998L2.81267 11.2952L2.81015 11.2927L2.10305 11.9998ZM3.50305 13.4098L4.23006 14.0964L4.89497 13.3924L4.21267 12.7052L3.50305 13.4098ZM3.16305 13.7698L2.43603 13.0832L1.7678 13.7907L2.45694 14.4779L3.16305 13.7698ZM6.70305 17.2998L5.99694 18.0079L6.70405 18.713L7.41015 18.0069L6.70305 17.2998ZM7.76305 16.2398L8.47182 15.5344L7.76471 14.8239L7.05594 15.5327L7.76305 16.2398ZM12.003 20.4998L11.2942 21.2053L11.3012 21.2121L12.003 20.4998ZM16.953 20.4998L17.655 21.2121L17.6627 21.2043L16.953 20.4998ZM16.953 15.5398L16.2459 16.2469L16.2485 16.2495L16.953 15.5398ZM8.46305 7.0498L7.7499 7.75087L7.75594 7.75691L8.46305 7.0498ZM8.46305 4.9298L9.16401 5.64306L9.17015 5.63691L8.46305 4.9298ZM10.593 4.9298L11.3002 4.2227L11.3002 4.2227L10.593 4.9298ZM14.833 9.1698L15.5402 9.87691L16.2473 9.1698L15.5402 8.4627L14.833 9.1698ZM13.773 10.2298L13.0659 9.5227L12.3598 10.2288L13.0649 10.9359L13.773 10.2298ZM17.303 13.7698L16.5949 14.4759L17.302 15.185L18.0102 14.4769L17.303 13.7698ZM17.663 13.4098L18.3726 12.7052L17.6656 11.9931L16.9559 12.7027L17.663 13.4098ZM19.073 14.8298L18.3634 15.5344L18.3659 15.5369L19.073 14.8298ZM20.503 14.8298L21.2011 15.5458L21.2082 15.5389L21.2151 15.5319L20.503 14.8298ZM21.903 13.4098L22.6151 14.1119L22.6214 14.1055L22.6276 14.099L21.903 13.4098ZM21.903 11.9998L21.1934 12.7044L21.1959 12.7069L21.903 11.9998ZM20.503 10.5898L19.776 9.90318L19.1111 10.6072L19.7934 11.2944L20.503 10.5898ZM20.843 10.2298L21.5701 10.9164L22.2383 10.2089L21.5492 9.5217L20.843 10.2298ZM17.303 6.6998L18.0092 5.9917L17.302 5.28659L16.5959 5.9927L17.303 6.6998ZM16.243 7.7598L15.5343 8.46525L16.2414 9.17568L16.9502 8.46691L16.243 7.7598ZM12.003 3.4998L12.7118 2.79433L12.7049 2.78752L12.003 3.4998ZM4.22305 9.8798L4.92765 9.1702L4.22055 8.46809L3.51594 9.1727L4.22305 9.8798ZM5.64305 11.2898L6.35015 11.9969L7.05976 11.2873L6.34765 10.5802L5.64305 11.2898ZM18.363 12.7098L17.6559 12.0027L16.9463 12.7123L17.6584 13.4194L18.363 12.7098ZM19.783 11.2898L20.4926 10.5852L19.7855 9.87309L19.0759 10.5827L19.783 11.2898ZM21.193 12.7098L21.9002 13.4169L22.6048 12.7123L21.9026 12.0052L21.193 12.7098ZM19.783 14.1198L19.0784 14.8294L19.7855 15.5315L20.4902 14.8269L19.783 14.1198ZM7.05305 3.4998L6.34337 2.79527C4.58769 4.56378 4.584 7.41497 6.34594 9.17691L7.05305 8.4698L7.76015 7.7627C6.78209 6.78464 6.77841 5.19583 7.76272 4.20434L7.05305 3.4998ZM7.05305 8.4698L6.34636 9.17733L14.8364 17.6573L15.543 16.9498L16.2497 16.2423L7.75974 7.76228L7.05305 8.4698ZM15.543 16.9498L14.8299 17.6508C15.0342 17.8586 15.0166 18.1851 14.8421 18.3566L15.543 19.0698L16.244 19.783C17.2295 18.8145 17.2119 17.221 16.2562 16.2488L15.543 16.9498ZM15.543 19.0698L14.8359 18.3627C14.6365 18.5622 14.3196 18.5622 14.1202 18.3627L13.413 19.0698L12.7059 19.7769C13.6865 20.7574 15.2696 20.7574 16.2502 19.7769L15.543 19.0698ZM13.413 19.0698L14.1202 18.3627L9.88015 14.1227L9.17305 14.8298L8.46594 15.5369L12.7059 19.7769L13.413 19.0698ZM9.17305 14.8298L9.88015 15.5369L10.9402 14.4769L10.233 13.7698L9.52594 13.0627L8.46594 14.1227L9.17305 14.8298ZM10.233 13.7698L10.9412 13.0637L7.41115 9.5237L6.70305 10.2298L5.99494 10.9359L9.52494 14.4759L10.233 13.7698ZM6.70305 10.2298L5.99594 9.5227L5.63594 9.8827L6.34305 10.5898L7.05015 11.2969L7.41015 10.9369L6.70305 10.2298ZM6.34305 10.5898L7.05265 9.8852L5.64265 8.4652L4.93305 9.1698L4.22345 9.87441L5.63345 11.2944L6.34305 10.5898ZM4.93305 9.1698L5.64015 8.4627C4.85016 7.6727 3.59997 7.69746 2.81383 8.44525L3.50305 9.1698L4.19226 9.89436C4.2015 9.88557 4.20886 9.88174 4.21355 9.87988C4.21875 9.87782 4.22292 9.8773 4.22555 9.8773C4.22814 9.8773 4.22854 9.87778 4.2272 9.87724C4.2252 9.87643 4.22451 9.87548 4.22594 9.87691L4.93305 9.1698ZM3.50305 9.1698L2.79094 8.46773L1.39094 9.88773L2.10305 10.5898L2.81515 11.2919L4.21515 9.87188L3.50305 9.1698ZM2.10305 10.5898L1.37849 9.90059C0.630701 10.6867 0.605947 11.9169 1.39594 12.7069L2.10305 11.9998L2.81015 11.2927C2.8076 11.2901 2.8068 11.2889 2.80695 11.2891C2.80708 11.2893 2.80769 11.2903 2.8084 11.292C2.80993 11.2957 2.81055 11.2995 2.81055 11.3023C2.81055 11.305 2.80998 11.305 2.81115 11.3021C2.81219 11.2995 2.81598 11.2912 2.8276 11.279L2.10305 10.5898ZM2.10305 11.9998L1.39343 12.7044L2.79343 14.1144L3.50305 13.4098L4.21267 12.7052L2.81267 11.2952L2.10305 11.9998ZM3.50305 13.4098L2.77603 12.7232L2.43603 13.0832L3.16305 13.7698L3.89006 14.4564L4.23006 14.0964L3.50305 13.4098ZM3.16305 13.7698L2.45694 14.4779L5.99694 18.0079L6.70305 17.2998L7.40915 16.5917L3.86915 13.0617L3.16305 13.7698ZM6.70305 17.2998L7.41015 18.0069L8.47015 16.9469L7.76305 16.2398L7.05594 15.5327L5.99594 16.5927L6.70305 17.2998ZM7.76305 16.2398L7.05428 16.9452L11.2943 21.2052L12.003 20.4998L12.7118 19.7944L8.47182 15.5344L7.76305 16.2398ZM12.003 20.4998L11.3012 21.2121C13.0605 22.9457 15.8956 22.9457 17.6549 21.2121L16.953 20.4998L16.2512 19.7875C15.2705 20.7539 13.6856 20.7539 12.7049 19.7875L12.003 20.4998ZM16.953 20.4998L17.6627 21.2043C19.417 19.4373 19.4244 16.5841 17.6576 14.8301L16.953 15.5398L16.2485 16.2495C17.2217 17.2156 17.2291 18.8023 16.2434 19.7953L16.953 20.4998ZM16.953 15.5398L17.6602 14.8327L9.17015 6.3427L8.46305 7.0498L7.75594 7.75691L16.2459 16.2469L16.953 15.5398ZM8.46305 7.0498L9.17617 6.34877C8.97194 6.14101 8.98947 5.81453 9.16398 5.64303L8.46305 4.9298L7.76212 4.21658C6.77662 5.18508 6.79416 6.7786 7.74992 7.75084L8.46305 7.0498ZM8.46305 4.9298L9.17015 5.63691C9.36963 5.43744 9.68646 5.43744 9.88594 5.63691L10.593 4.9298L11.3002 4.2227C10.3196 3.24217 8.73646 3.24217 7.75594 4.2227L8.46305 4.9298ZM10.593 4.9298L9.88594 5.63691L14.1259 9.87691L14.833 9.1698L15.5402 8.4627L11.3002 4.2227L10.593 4.9298ZM14.833 9.1698L14.1259 8.4627L13.0659 9.5227L13.773 10.2298L14.4802 10.9369L15.5402 9.87691L14.833 9.1698ZM13.773 10.2298L13.0649 10.9359L16.5949 14.4759L17.303 13.7698L18.0112 13.0637L14.4812 9.5237L13.773 10.2298ZM17.303 13.7698L18.0102 14.4769L18.3702 14.1169L17.663 13.4098L16.9559 12.7027L16.5959 13.0627L17.303 13.7698ZM17.663 13.4098L16.9534 14.1144L18.3634 15.5344L19.073 14.8298L19.7826 14.1252L18.3726 12.7052L17.663 13.4098ZM19.073 14.8298L18.3659 15.5369C19.1513 16.3223 20.4178 16.3096 21.2011 15.5458L20.503 14.8298L19.8049 14.1138C19.8011 14.1176 19.7981 14.1192 19.7955 14.1202C19.7923 14.1215 19.7884 14.1223 19.7843 14.1223C19.7802 14.1223 19.7781 14.1215 19.7782 14.1215C19.7783 14.1216 19.7788 14.1218 19.7795 14.1222C19.7802 14.1227 19.7804 14.123 19.7802 14.1227L19.073 14.8298ZM20.503 14.8298L21.2151 15.5319L22.6151 14.1119L21.903 13.4098L21.1909 12.7077L19.7909 14.1277L20.503 14.8298ZM21.903 13.4098L22.6276 14.099C23.3754 13.3129 23.4001 12.0827 22.6102 11.2927L21.903 11.9998L21.1959 12.7069C21.1985 12.7095 21.1993 12.7107 21.1991 12.7105C21.199 12.7103 21.1984 12.7093 21.1977 12.7076C21.1962 12.7039 21.1955 12.7001 21.1955 12.6973C21.1955 12.6946 21.1961 12.6946 21.1949 12.6975C21.1939 12.7001 21.1901 12.7084 21.1785 12.7206L21.903 13.4098ZM21.903 11.9998L22.6127 11.2952L21.2127 9.88522L20.503 10.5898L19.7934 11.2944L21.1934 12.7044L21.903 11.9998ZM20.503 10.5898L21.2301 11.2764L21.5701 10.9164L20.843 10.2298L20.116 9.54318L19.776 9.90318L20.503 10.5898ZM20.843 10.2298L21.5492 9.5217L18.0092 5.9917L17.303 6.6998L16.5969 7.40791L20.1369 10.9379L20.843 10.2298ZM17.303 6.6998L16.5959 5.9927L15.5359 7.0527L16.243 7.7598L16.9502 8.46691L18.0102 7.40691L17.303 6.6998ZM16.243 7.7598L16.9518 7.05436L12.7118 2.79436L12.003 3.4998L11.2943 4.20525L15.5343 8.46525L16.243 7.7598ZM12.003 3.4998L12.7049 2.78752C10.9456 1.0539 8.11046 1.0539 6.35116 2.78752L7.05305 3.4998L7.75494 4.21209C8.73563 3.24571 10.3205 3.24571 11.3012 4.21209L12.003 3.4998ZM2.81305 11.2898L3.52015 11.9969L4.93015 10.5869L4.22305 9.8798L3.51594 9.1727L2.10594 10.5827L2.81305 11.2898ZM4.22305 9.8798L3.51844 10.5894L4.93844 11.9994L5.64305 11.2898L6.34765 10.5802L4.92765 9.1702L4.22305 9.8798ZM5.64305 11.2898L4.93594 10.5827L3.51594 12.0027L4.22305 12.7098L4.93015 13.4169L6.35015 11.9969L5.64305 11.2898ZM18.363 12.7098L19.0702 13.4169L20.4902 11.9969L19.783 11.2898L19.0759 10.5827L17.6559 12.0027L18.363 12.7098ZM19.783 11.2898L19.0734 11.9944L20.4834 13.4144L21.193 12.7098L21.9026 12.0052L20.4926 10.5852L19.783 11.2898ZM21.193 12.7098L20.4859 12.0027L19.0759 13.4127L19.783 14.1198L20.4902 14.8269L21.9002 13.4169L21.193 12.7098ZM19.783 14.1198L20.4877 13.4102L19.0677 12.0002L18.363 12.7098L17.6584 13.4194L19.0784 14.8294L19.783 14.1198Z" fill="black" mask="url(#path-1-inside-1_18_466)"/>
<path d="M7.05305 3.4998L6.35112 2.78747L6.34337 2.79527L7.05305 3.4998ZM7.05305 8.4698L6.34594 9.17691L6.34636 9.17733L7.05305 8.4698ZM15.543 16.9498L16.2562 16.2487L16.2497 16.2423L15.543 16.9498ZM15.543 19.0698L14.8421 18.3565L14.8359 18.3627L15.543 19.0698ZM13.413 19.0698L12.7059 19.7769L12.7059 19.7769L13.413 19.0698ZM9.17305 14.8298L8.46594 14.1227L7.75883 14.8298L8.46594 15.5369L9.17305 14.8298ZM10.233 13.7698L10.9402 14.4769L11.6463 13.7708L10.9412 13.0637L10.233 13.7698ZM6.70305 10.2298L7.41115 9.5237L6.70405 8.81459L5.99594 9.5227L6.70305 10.2298ZM6.34305 10.5898L5.63345 11.2944L6.34055 12.0065L7.05015 11.2969L6.34305 10.5898ZM4.93305 9.1698L5.64265 8.4652L5.64015 8.4627L4.93305 9.1698ZM3.50305 9.1698L2.81383 8.44525L2.80221 8.4563L2.79094 8.46773L3.50305 9.1698ZM2.10305 10.5898L1.39094 9.88773L1.38466 9.8941L1.37849 9.90059L2.10305 10.5898ZM2.10305 11.9998L2.81267 11.2952L2.81015 11.2927L2.10305 11.9998ZM3.50305 13.4098L4.23006 14.0964L4.89497 13.3924L4.21267 12.7052L3.50305 13.4098ZM3.16305 13.7698L2.43603 13.0832L1.7678 13.7907L2.45694 14.4779L3.16305 13.7698ZM6.70305 17.2998L5.99694 18.0079L6.70405 18.713L7.41015 18.0069L6.70305 17.2998ZM7.76305 16.2398L8.47182 15.5344L7.76471 14.8239L7.05594 15.5327L7.76305 16.2398ZM12.003 20.4998L11.2942 21.2053L11.3012 21.2121L12.003 20.4998ZM16.953 20.4998L17.655 21.2121L17.6627 21.2043L16.953 20.4998ZM16.953 15.5398L16.2459 16.2469L16.2485 16.2495L16.953 15.5398ZM8.46305 7.0498L7.7499 7.75087L7.75594 7.75691L8.46305 7.0498ZM8.46305 4.9298L9.16401 5.64306L9.17015 5.63691L8.46305 4.9298ZM10.593 4.9298L11.3002 4.2227L11.3002 4.2227L10.593 4.9298ZM14.833 9.1698L15.5402 9.87691L16.2473 9.1698L15.5402 8.4627L14.833 9.1698ZM13.773 10.2298L13.0659 9.5227L12.3598 10.2288L13.0649 10.9359L13.773 10.2298ZM17.303 13.7698L16.5949 14.4759L17.302 15.185L18.0102 14.4769L17.303 13.7698ZM17.663 13.4098L18.3726 12.7052L17.6656 11.9931L16.9559 12.7027L17.663 13.4098ZM19.073 14.8298L18.3634 15.5344L18.3659 15.5369L19.073 14.8298ZM20.503 14.8298L21.2011 15.5458L21.2082 15.5389L21.2151 15.5319L20.503 14.8298ZM21.903 13.4098L22.6151 14.1119L22.6214 14.1055L22.6276 14.099L21.903 13.4098ZM21.903 11.9998L21.1934 12.7044L21.1959 12.7069L21.903 11.9998ZM20.503 10.5898L19.776 9.90318L19.1111 10.6072L19.7934 11.2944L20.503 10.5898ZM20.843 10.2298L21.5701 10.9164L22.2383 10.2089L21.5492 9.5217L20.843 10.2298ZM17.303 6.6998L18.0092 5.9917L17.302 5.28659L16.5959 5.9927L17.303 6.6998ZM16.243 7.7598L15.5343 8.46525L16.2414 9.17568L16.9502 8.46691L16.243 7.7598ZM12.003 3.4998L12.7118 2.79433L12.7049 2.78752L12.003 3.4998ZM4.22305 9.8798L4.92765 9.1702L4.22055 8.46809L3.51594 9.1727L4.22305 9.8798ZM5.64305 11.2898L6.35015 11.9969L7.05976 11.2873L6.34765 10.5802L5.64305 11.2898ZM18.363 12.7098L17.6559 12.0027L16.9463 12.7123L17.6584 13.4194L18.363 12.7098ZM19.783 11.2898L20.4926 10.5852L19.7855 9.87309L19.0759 10.5827L19.783 11.2898ZM21.193 12.7098L21.9002 13.4169L22.6048 12.7123L21.9026 12.0052L21.193 12.7098ZM19.783 14.1198L19.0784 14.8294L19.7855 15.5315L20.4902 14.8269L19.783 14.1198ZM7.05305 3.4998L6.34337 2.79527C4.58769 4.56378 4.584 7.41497 6.34594 9.17691L7.05305 8.4698L7.76015 7.7627C6.78209 6.78464 6.77841 5.19583 7.76272 4.20434L7.05305 3.4998ZM7.05305 8.4698L6.34636 9.17733L14.8364 17.6573L15.543 16.9498L16.2497 16.2423L7.75974 7.76228L7.05305 8.4698ZM15.543 16.9498L14.8299 17.6508C15.0342 17.8586 15.0166 18.1851 14.8421 18.3566L15.543 19.0698L16.244 19.783C17.2295 18.8145 17.2119 17.221 16.2562 16.2488L15.543 16.9498ZM15.543 19.0698L14.8359 18.3627C14.6365 18.5622 14.3196 18.5622 14.1202 18.3627L13.413 19.0698L12.7059 19.7769C13.6865 20.7574 15.2696 20.7574 16.2502 19.7769L15.543 19.0698ZM13.413 19.0698L14.1202 18.3627L9.88015 14.1227L9.17305 14.8298L8.46594 15.5369L12.7059 19.7769L13.413 19.0698ZM9.17305 14.8298L9.88015 15.5369L10.9402 14.4769L10.233 13.7698L9.52594 13.0627L8.46594 14.1227L9.17305 14.8298ZM10.233 13.7698L10.9412 13.0637L7.41115 9.5237L6.70305 10.2298L5.99494 10.9359L9.52494 14.4759L10.233 13.7698ZM6.70305 10.2298L5.99594 9.5227L5.63594 9.8827L6.34305 10.5898L7.05015 11.2969L7.41015 10.9369L6.70305 10.2298ZM6.34305 10.5898L7.05265 9.8852L5.64265 8.4652L4.93305 9.1698L4.22345 9.87441L5.63345 11.2944L6.34305 10.5898ZM4.93305 9.1698L5.64015 8.4627C4.85016 7.6727 3.59997 7.69746 2.81383 8.44525L3.50305 9.1698L4.19226 9.89436C4.2015 9.88557 4.20886 9.88174 4.21355 9.87988C4.21875 9.87782 4.22292 9.8773 4.22555 9.8773C4.22814 9.8773 4.22854 9.87778 4.2272 9.87724C4.2252 9.87643 4.22451 9.87548 4.22594 9.87691L4.93305 9.1698ZM3.50305 9.1698L2.79094 8.46773L1.39094 9.88773L2.10305 10.5898L2.81515 11.2919L4.21515 9.87188L3.50305 9.1698ZM2.10305 10.5898L1.37849 9.90059C0.630701 10.6867 0.605947 11.9169 1.39594 12.7069L2.10305 11.9998L2.81015 11.2927C2.8076 11.2901 2.8068 11.2889 2.80695 11.2891C2.80708 11.2893 2.80769 11.2903 2.8084 11.292C2.80993 11.2957 2.81055 11.2995 2.81055 11.3023C2.81055 11.305 2.80998 11.305 2.81115 11.3021C2.81219 11.2995 2.81598 11.2912 2.8276 11.279L2.10305 10.5898ZM2.10305 11.9998L1.39343 12.7044L2.79343 14.1144L3.50305 13.4098L4.21267 12.7052L2.81267 11.2952L2.10305 11.9998ZM3.50305 13.4098L2.77603 12.7232L2.43603 13.0832L3.16305 13.7698L3.89006 14.4564L4.23006 14.0964L3.50305 13.4098ZM3.16305 13.7698L2.45694 14.4779L5.99694 18.0079L6.70305 17.2998L7.40915 16.5917L3.86915 13.0617L3.16305 13.7698ZM6.70305 17.2998L7.41015 18.0069L8.47015 16.9469L7.76305 16.2398L7.05594 15.5327L5.99594 16.5927L6.70305 17.2998ZM7.76305 16.2398L7.05428 16.9452L11.2943 21.2052L12.003 20.4998L12.7118 19.7944L8.47182 15.5344L7.76305 16.2398ZM12.003 20.4998L11.3012 21.2121C13.0605 22.9457 15.8956 22.9457 17.6549 21.2121L16.953 20.4998L16.2512 19.7875C15.2705 20.7539 13.6856 20.7539 12.7049 19.7875L12.003 20.4998ZM16.953 20.4998L17.6627 21.2043C19.417 19.4373 19.4244 16.5841 17.6576 14.8301L16.953 15.5398L16.2485 16.2495C17.2217 17.2156 17.2291 18.8023 16.2434 19.7953L16.953 20.4998ZM16.953 15.5398L17.6602 14.8327L9.17015 6.3427L8.46305 7.0498L7.75594 7.75691L16.2459 16.2469L16.953 15.5398ZM8.46305 7.0498L9.17617 6.34877C8.97194 6.14101 8.98947 5.81453 9.16398 5.64303L8.46305 4.9298L7.76212 4.21658C6.77662 5.18508 6.79416 6.7786 7.74992 7.75084L8.46305 7.0498ZM8.46305 4.9298L9.17015 5.63691C9.36963 5.43744 9.68646 5.43744 9.88594 5.63691L10.593 4.9298L11.3002 4.2227C10.3196 3.24217 8.73646 3.24217 7.75594 4.2227L8.46305 4.9298ZM10.593 4.9298L9.88594 5.63691L14.1259 9.87691L14.833 9.1698L15.5402 8.4627L11.3002 4.2227L10.593 4.9298ZM14.833 9.1698L14.1259 8.4627L13.0659 9.5227L13.773 10.2298L14.4802 10.9369L15.5402 9.87691L14.833 9.1698ZM13.773 10.2298L13.0649 10.9359L16.5949 14.4759L17.303 13.7698L18.0112 13.0637L14.4812 9.5237L13.773 10.2298ZM17.303 13.7698L18.0102 14.4769L18.3702 14.1169L17.663 13.4098L16.9559 12.7027L16.5959 13.0627L17.303 13.7698ZM17.663 13.4098L16.9534 14.1144L18.3634 15.5344L19.073 14.8298L19.7826 14.1252L18.3726 12.7052L17.663 13.4098ZM19.073 14.8298L18.3659 15.5369C19.1513 16.3223 20.4178 16.3096 21.2011 15.5458L20.503 14.8298L19.8049 14.1138C19.8011 14.1176 19.7981 14.1192 19.7955 14.1202C19.7923 14.1215 19.7884 14.1223 19.7843 14.1223C19.7802 14.1223 19.7781 14.1215 19.7782 14.1215C19.7783 14.1216 19.7788 14.1218 19.7795 14.1222C19.7802 14.1227 19.7804 14.123 19.7802 14.1227L19.073 14.8298ZM20.503 14.8298L21.2151 15.5319L22.6151 14.1119L21.903 13.4098L21.1909 12.7077L19.7909 14.1277L20.503 14.8298ZM21.903 13.4098L22.6276 14.099C23.3754 13.3129 23.4001 12.0827 22.6102 11.2927L21.903 11.9998L21.1959 12.7069C21.1985 12.7095 21.1993 12.7107 21.1991 12.7105C21.199 12.7103 21.1984 12.7093 21.1977 12.7076C21.1962 12.7039 21.1955 12.7001 21.1955 12.6973C21.1955 12.6946 21.1961 12.6946 21.1949 12.6975C21.1939 12.7001 21.1901 12.7084 21.1785 12.7206L21.903 13.4098ZM21.903 11.9998L22.6127 11.2952L21.2127 9.88522L20.503 10.5898L19.7934 11.2944L21.1934 12.7044L21.903 11.9998ZM20.503 10.5898L21.2301 11.2764L21.5701 10.9164L20.843 10.2298L20.116 9.54318L19.776 9.90318L20.503 10.5898ZM20.843 10.2298L21.5492 9.5217L18.0092 5.9917L17.303 6.6998L16.5969 7.40791L20.1369 10.9379L20.843 10.2298ZM17.303 6.6998L16.5959 5.9927L15.5359 7.0527L16.243 7.7598L16.9502 8.46691L18.0102 7.40691L17.303 6.6998ZM16.243 7.7598L16.9518 7.05436L12.7118 2.79436L12.003 3.4998L11.2943 4.20525L15.5343 8.46525L16.243 7.7598ZM12.003 3.4998L12.7049 2.78752C10.9456 1.0539 8.11046 1.0539 6.35116 2.78752L7.05305 3.4998L7.75494 4.21209C8.73563 3.24571 10.3205 3.24571 11.3012 4.21209L12.003 3.4998ZM2.81305 11.2898L3.52015 11.9969L4.93015 10.5869L4.22305 9.8798L3.51594 9.1727L2.10594 10.5827L2.81305 11.2898ZM4.22305 9.8798L3.51844 10.5894L4.93844 11.9994L5.64305 11.2898L6.34765 10.5802L4.92765 9.1702L4.22305 9.8798ZM5.64305 11.2898L4.93594 10.5827L3.51594 12.0027L4.22305 12.7098L4.93015 13.4169L6.35015 11.9969L5.64305 11.2898ZM18.363 12.7098L19.0702 13.4169L20.4902 11.9969L19.783 11.2898L19.0759 10.5827L17.6559 12.0027L18.363 12.7098ZM19.783 11.2898L19.0734 11.9944L20.4834 13.4144L21.193 12.7098L21.9026 12.0052L20.4926 10.5852L19.783 11.2898ZM21.193 12.7098L20.4859 12.0027L19.0759 13.4127L19.783 14.1198L20.4902 14.8269L21.9002 13.4169L21.193 12.7098ZM19.783 14.1198L20.4877 13.4102L19.0677 12.0002L18.363 12.7098L17.6584 13.4194L19.0784 14.8294L19.783 14.1198Z" fill="black" fill-opacity="0.2" mask="url(#path-1-inside-1_18_466)"/>
</g>
</g>
<defs>
<filter id="filter0_d_18_466" x="-2.18945" y="2.4873" width="28.385" height="27.025" filterUnits="userSpaceOnUse" color-interpolation-filters="sRGB">
<feFlood flood-opacity="0" result="BackgroundImageFix"/>
<feColorMatrix in="SourceAlpha" type="matrix" values="0 0 0 0 0 0 0 0 0 0 0 0 0 0 0 0 0 0 127 0" result="hardAlpha"/>
<feOffset dy="4"/>
<feGaussianBlur stdDeviation="2"/>
<feComposite in2="hardAlpha" operator="out"/>
<feColorMatrix type="matrix" values="0 0 0 0 0 0 0 0 0 0 0 0 0 0 0 0 0 0 0.25 0"/>
<feBlend mode="normal" in2="BackgroundImageFix" result="effect1_dropShadow_18_466"/>
<feBlend mode="normal" in="SourceGraphic" in2="effect1_dropShadow_18_466" result="shape"/>
</filter>
<clipPath id="clip0_18_466">
<rect width="24" height="24" fill="white"/>
</clipPath>
</defs>
</svg>
